# xmcd
#
# Track frame offsets:
#	150
#	17288
#	31856
#	44302
#	51993
#	66179
#	78666
#	92683
#	108790
#	117735
#
# Disc length: 1618 seconds
#
# Revision: 1
# Processed by: cddbd v1.5.1PL0 Copyright (c) Steve Scherf et al.
# Submitted via: audiograbber 1.83.01
#
DISCID=7a06500a
DTITLE=Johnny Cash - Live At Austin Texas 1994 Disk 2
DYEAR=1994
DGENRE=Country
TTITLE0=Johnny Cash 01 - Live Forever
TTITLE1=Johnny Cash 02 - Will THe Circle Be Unbroken
TTITLE2=Johnny Cash 03 - The Next Time I'm In Town
TTITLE3=Johnny Cash 04 - Guess Things Happen That Way
TTITLE4=Johnny Cash 05 - The Ballad Of Ira Hayes
TTITLE5=Johnny Cash 06 - Home Of The Blues
TTITLE6=Johnny Cash 07 - Long Black Veil
TTITLE7=Johnny Cash 08 - A Boy Named Sue
TTITLE8=Johnny Cash 09 - Peace In The Valley
TTITLE9=Johnny Cash - Closing Guitar Medley
EXTD=
EXTT0=
EXTT1=
EXTT2=
EXTT3=
EXTT4=
EXTT5=
EXTT6=
EXTT7=
EXTT8=
EXTT9=
PLAYORDER=
